<?xml version="1.0" standalone="no"?>
<!DOCTYPE svg PUBLIC "-//W3C//DTD SVG 20010904//EN"
 "http://www.w3.org/TR/2001/REC-SVG-20010904/DTD/svg10.dtd">
<svg version="1.0" xmlns="http://www.w3.org/2000/svg"
 width="800.000000pt" height="800.000000pt" viewBox="0 0 800.000000 800.000000"
 preserveAspectRatio="xMidYMid meet">
<metadata>
Created by potrace 1.14, written by Peter Selinger 2001-2017
</metadata>
<g transform="translate(0.000000,800.000000) scale(0.100000,-0.100000)"
fill="#000000" stroke="none">
<path d="M4620 7183 c0 -5 27 -109 60 -233 61 -229 67 -260 51 -260 -5 0 -89
40 -187 89 -99 50 -223 106 -277 126 -96 35 -312 100 -365 110 -15 3 -38 7
-52 10 -100 20 -190 36 -261 45 -46 5 -93 12 -104 14 -44 9 -175 18 -175 12 0
-7 21 -44 97 -171 33 -55 81 -140 108 -189 l48 -89 -49 9 c-27 5 -186 9 -354
9 -265 0 -361 -4 -481 -20 -155 -20 -657 -164 -666 -191 -4 -13 67 -61 237
-159 63 -37 139 -83 169 -103 66 -44 62 -48 -81 -86 -168 -46 -446 -143 -578
-203 -136 -62 -299 -156 -480 -276 -140 -93 -161 -109 -157 -120 1 -5 5 -7 7
-6 3 1 15 -3 26 -9 12 -6 96 -34 185 -62 201 -62 309 -101 309 -109 0 -4 -80
-46 -178 -94 -381 -188 -493 -254 -667 -392 -128 -102 -295 -263 -295 -286 0
-24 13 -26 305 -54 100 -10 138 -15 178 -26 l38 -10 -108 -78 c-189 -137 -415
-375 -575 -606 -64 -92 -158 -253 -158 -271 0 -8 10 -11 28 -8 291 43 462 62
462 51 0 -5 -120 -192 -160 -248 -42 -59 -142 -283 -189 -424 -56 -165 -63
-215 -32 -215 11 0 118 25 238 56 263 68 267 69 261 58 -11 -19 -124 -207
-146 -242 -44 -71 -140 -278 -170 -367 -75 -224 -132 -521 -103 -539 8 -5 53
24 369 238 73 49 134 87 136 85 3 -2 -4 -40 -15 -84 -10 -44 -22 -114 -26
-155 -13 -137 -7 -441 11 -536 10 -50 53 -194 62 -203 3 -3 41 22 134 87 25
18 80 57 124 87 l79 55 27 -37 c51 -70 72 -117 81 -182 11 -73 31 -114 72
-145 23 -17 47 -22 130 -26 56 -3 1162 -5 2457 -4 2124 0 2358 2 2385 16 39
21 70 56 83 95 7 20 11 220 11 570 2 728 9 1288 16 1343 6 40 24 108 57 220
36 122 141 297 248 413 49 53 224 207 320 280 69 54 106 82 110 87 3 3 27 23
55 45 166 133 287 285 385 484 88 179 130 331 126 465 -4 126 -36 200 -116
269 -61 52 -95 64 -197 70 -72 5 -103 12 -144 33 -178 90 -260 173 -479 489
-73 106 -171 250 -185 273 -5 9 -14 21 -20 28 -5 6 -63 90 -127 185 -358 534
-571 819 -613 819 -7 0 -15 -17 -19 -37 -7 -41 -40 -275 -51 -358 -3 -27 -8
-51 -11 -54 -4 -4 -112 66 -124 80 -10 12 -257 177 -334 223 -211 127 -456
243 -657 312 -105 36 -119 39 -119 27z m-741 -1008 c160 -82 -33 -346 -314
-428 -80 -23 -183 -22 -223 3 -69 43 -64 112 15 217 75 101 210 190 328 218
64 15 155 11 194 -10z m-1009 -176 c83 -47 62 -158 -49 -270 -126 -126 -370
-202 -484 -151 -49 22 -60 41 -53 95 7 55 33 101 89 156 96 93 183 144 307
181 77 23 136 19 190 -11z m2645 16 c206 -22 477 -129 637 -251 73 -56 223
-203 294 -289 27 -33 96 -123 153 -198 154 -204 298 -350 421 -425 60 -36 214
-110 245 -117 17 -4 40 -13 52 -21 19 -12 20 -17 11 -51 -48 -176 -161 -309
-464 -552 -187 -151 -234 -192 -325 -286 -235 -242 -371 -485 -453 -810 -15
-60 -21 -97 -31 -207 -6 -71 -22 -989 -24 -1425 l-1 -193 -160 0 -160 0 -1 38
c0 20 -2 93 -4 162 -2 69 -6 269 -9 445 -4 176 -9 333 -11 350 -2 16 -7 53
-10 80 -14 102 -91 157 -220 156 -141 -1 -178 -42 -191 -211 -11 -149 -12
-210 -13 -627 l-1 -393 -124 0 -123 0 -28 76 c-51 139 -175 299 -306 393 l-47
33 -2 221 c-3 405 -6 427 -72 497 -85 90 -194 95 -284 13 -60 -56 -66 -83 -67
-339 l-2 -224 -85 0 c-282 -2 -681 -10 -725 -16 -124 -15 -182 -54 -215 -141
-32 -86 -22 -151 33 -213 54 -60 84 -66 383 -75 536 -16 595 -19 659 -36 59
-16 116 -53 192 -124 l68 -64 -1089 -1 -1089 0 6 143 c14 342 107 587 327 860
69 87 169 188 255 260 33 27 62 53 65 56 3 3 59 49 125 102 118 93 180 142
380 296 228 176 432 359 515 462 19 24 40 48 45 55 15 16 105 143 138 194 46
71 119 208 156 292 80 185 151 462 151 591 0 54 -7 64 -84 113 -116 74 -240
235 -278 359 -22 75 -30 234 -16 327 24 156 117 303 267 422 96 77 171 112
292 137 82 17 146 41 251 92 9 4 52 17 96 28 75 20 94 23 207 41 44 7 206 5
290 -5z m-2086 -660 c98 -50 82 -153 -43 -276 -105 -104 -264 -178 -385 -179
-93 0 -140 34 -146 105 -2 22 29 82 66 130 82 104 220 200 328 228 60 15 143
12 180 -8z m-970 -94 c51 -28 58 -89 17 -168 -75 -149 -302 -281 -483 -281
-133 0 -162 46 -103 164 65 130 261 284 383 300 23 4 43 7 45 8 5 6 124 -15
141 -23z m1368 -682 c106 -40 111 -141 14 -251 -72 -81 -198 -162 -296 -190
-61 -18 -171 -23 -207 -9 -58 22 -58 118 2 211 106 165 357 288 487 239z
m-902 -42 c36 -31 38 -37 37 -84 -1 -63 -31 -114 -110 -190 -133 -129 -303
-187 -460 -158 -50 9 -67 43 -53 103 27 106 117 210 246 283 65 36 196 78 251
78 44 1 56 -4 89 -32z m-986 -51 c19 -10 38 -31 46 -50 53 -125 -102 -308
-333 -394 -87 -32 -231 -37 -259 -10 -24 25 -22 110 5 168 49 105 197 222 354
279 90 33 133 34 187 7z m1429 -715 c95 -48 78 -144 -46 -275 -133 -141 -391
-237 -482 -181 -25 15 -37 65 -29 112 24 126 133 245 291 317 110 51 201 60
266 27z m-959 -12 c68 -24 76 -101 20 -193 -116 -189 -446 -355 -549 -276 -21
16 -25 27 -25 73 2 178 261 404 466 406 31 1 70 -4 88 -10z m-927 -130 c39
-21 37 -151 -5 -222 -92 -157 -403 -337 -496 -287 -64 34 -61 177 6 283 70
111 234 217 373 240 33 6 100 -2 122 -14z m1269 -625 c12 -12 22 -40 25 -71 5
-42 2 -61 -19 -107 -40 -86 -177 -212 -298 -272 -106 -54 -225 -53 -268 2 -16
20 -17 31 -10 71 16 84 57 153 139 233 78 77 180 140 256 159 63 16 151 8 175
-15z m-963 -93 c38 -20 55 -51 55 -96 0 -177 -278 -443 -468 -447 -112 -2
-135 91 -59 240 104 204 356 365 472 303z m-64 -903 c27 -27 28 -32 24 -101
-4 -94 -45 -179 -130 -271 -106 -117 -255 -205 -317 -189 -56 14 -81 128 -50
228 25 81 61 136 145 219 134 134 263 179 328 114z"/>
<path d="M4700 5516 c-68 -15 -91 -27 -147 -79 -86 -79 -136 -224 -119 -342
13 -86 125 -175 200 -159 59 12 81 46 92 137 11 90 26 102 137 113 84 8 108
21 135 74 43 83 11 171 -81 224 -38 22 -60 28 -137 40 -14 2 -50 -2 -80 -8z"/>
<path d="M5730 5041 c-107 -41 -174 -106 -216 -209 -14 -34 -24 -78 -24 -108
0 -101 90 -228 198 -277 37 -17 67 -21 137 -22 80 0 95 3 136 27 58 34 118
100 149 163 35 71 34 159 -3 238 -67 146 -249 237 -377 188z"/>
</g>
</svg>
