<?xml version="1.0" standalone="no"?>
<!DOCTYPE svg PUBLIC "-//W3C//DTD SVG 20010904//EN"
 "http://www.w3.org/TR/2001/REC-SVG-20010904/DTD/svg10.dtd">
<svg version="1.0" xmlns="http://www.w3.org/2000/svg"
 width="1024.000000pt" height="1024.000000pt" viewBox="0 0 1024.000000 1024.000000"
 preserveAspectRatio="xMidYMid meet">

   <defs>
    <linearGradient id="customGradient" gradientUnits="userSpaceOnUse"
      x1="0" y1="0" x2="10240" y2="10240">
      <stop offset="0%" style="stop-color:#5973e1" /> 
      <stop offset="100%" style="stop-color:#5ec5f6" />
    </linearGradient>
  </defs>

<g transform="translate(0.000000,1024.000000) scale(0.100000,-0.100000)"
fill="url(#customGradient)" stroke="none" fill-opacity="0.8">
<path d="M4759 7743 c-412 -414 -612 -620 -617 -631 -1 -4 78 -87 176 -185
l177 -177 323 320 c181 179 328 318 334 314 16 -10 272 -274 276 -285 2 -5
-151 -168 -340 -362 -188 -193 -390 -400 -447 -459 -58 -60 -108 -108 -112
-108 -4 0 -161 152 -350 337 l-342 338 -149 -154 c-82 -85 -161 -169 -175
-188 l-26 -34 654 -657 c360 -361 656 -658 659 -659 3 -2 84 76 180 172 l174
176 175 -175 c97 -97 181 -176 186 -176 6 0 59 49 119 110 l109 110 26 -19
c28 -21 332 -328 345 -349 6 -10 -66 -89 -251 -275 -344 -347 -900 -913 -1093
-1112 -372 -384 -625 -648 -628 -654 -1 -3 227 -236 508 -516 l510 -510 497
498 498 497 -188 187 -188 188 -305 -309 -305 -310 -145 145 c-79 79 -144 148
-144 154 0 14 862 875 876 875 6 0 166 -153 355 -339 l344 -339 178 176 c97
97 176 180 175 184 -2 4 -153 161 -337 348 l-334 341 24 25 c13 14 75 78 138
142 96 98 116 114 131 105 14 -10 52 22 254 220 130 128 236 236 236 242 0 5
-41 51 -91 101 l-90 91 343 347 c189 191 344 351 346 355 3 8 -345 356 -356
356 -4 0 -155 -152 -336 -337 -180 -185 -334 -339 -341 -341 -7 -3 -69 52
-139 121 l-126 126 228 231 c322 325 447 454 450 468 3 14 -342 361 -354 356
-5 -2 -122 -119 -259 -259 -138 -140 -426 -433 -641 -652 l-391 -396 -133 133
c-100 100 -130 136 -124 148 5 8 291 299 637 647 345 348 627 638 627 644 0 6
-229 242 -508 524 l-507 514 -396 -399z"/>
<path d="M2799 5778 c-228 -233 -486 -497 -573 -587 l-159 -163 284 -284 283
-283 191 197 192 197 -93 99 c-52 55 -94 102 -94 106 0 4 163 173 363 375 199
202 368 376 375 387 13 18 -1 34 -166 199 -99 98 -182 179 -184 179 -3 0 -192
-190 -419 -422z"/>
<path d="M7482 5412 l-181 -188 102 -102 102 -102 -71 -72 c-38 -40 -151 -156
-249 -258 -99 -102 -247 -257 -329 -343 l-150 -158 180 -180 180 -180 589 591
c325 325 590 595 590 600 0 14 -557 580 -570 580 -7 0 -94 -85 -193 -188z"/>
<path d="M3617 5312 c-108 -108 -197 -201 -197 -206 0 -5 38 -49 85 -97 47
-49 85 -92 85 -97 0 -9 -199 -221 -450 -477 -86 -88 -180 -186 -210 -218 l-54
-58 180 -180 179 -179 366 366 367 367 28 -21 c16 -11 72 -63 123 -116 l95
-95 -69 -73 c-38 -40 -167 -174 -285 -298 -282 -294 -343 -359 -353 -376 -6
-11 24 -50 111 -142 66 -70 142 -149 169 -175 l50 -48 454 458 c627 632 874
883 877 891 1 4 -79 88 -178 187 l-180 180 -88 -88 c-48 -48 -93 -87 -101 -87
-7 0 -188 174 -403 388 -214 213 -392 388 -396 390 -4 1 -96 -87 -205 -196z"/>
</g>
</svg>
