<?xml version="1.0" standalone="no"?>
<!DOCTYPE svg PUBLIC "-//W3C//DTD SVG 20010904//EN"
 "http://www.w3.org/TR/2001/REC-SVG-20010904/DTD/svg10.dtd">
<svg version="1.0" xmlns="http://www.w3.org/2000/svg"
 width="1024.000000pt" height="1024.000000pt" viewBox="0 0 1024.000000 1024.000000"
 preserveAspectRatio="xMidYMid meet">

    <defs>
    <linearGradient id="customGradient" gradientUnits="userSpaceOnUse"
      x1="0" y1="0" x2="10240" y2="10240">
      <stop offset="0%" style="stop-color:#b4f392" /> 
      <stop offset="100%" style="stop-color:#358c93" />
    </linearGradient>
  </defs>

<g transform="translate(0.000000,1024.000000) scale(0.100000,-0.100000)"
fill="url(#customGradient)" stroke="none" fill-opacity="0.8">
<path d="M4945 8464 c-354 -21 -768 -116 -1095 -251 -297 -123 -597 -294 -841
-482 -386 -296 -744 -732 -966 -1178 -209 -418 -314 -809 -344 -1272 -38 -595
91 -1215 359 -1734 30 -59 60 -111 66 -116 9 -7 11 74 8 311 l-4 320 82 83 83
84 -31 168 c-43 229 -51 287 -61 481 -16 306 8 558 85 872 104 424 271 758
555 1110 430 535 1059 908 1760 1045 174 34 303 45 513 45 391 0 701 -66 1177
-249 305 -117 514 -171 665 -171 l44 0 0 169 0 170 -107 64 c-224 135 -371
209 -595 301 -261 106 -574 183 -878 215 -110 11 -387 20 -475 15z"/>
<path d="M5030 7381 c-86 -28 -163 -91 -203 -166 -18 -33 -22 -57 -22 -135 0
-109 11 -138 79 -208 68 -72 106 -87 216 -87 84 0 101 3 146 27 133 70 196
229 148 371 -21 63 -92 140 -159 173 -58 28 -159 41 -205 25z"/>
<path d="M6440 7135 c-154 -286 -361 -515 -625 -691 -194 -129 -408 -219 -665
-279 -548 -129 -740 -192 -1031 -341 -525 -268 -960 -682 -1243 -1179 -206
-362 -328 -749 -366 -1160 -13 -144 -13 -275 2 -464 l11 -154 108 -121 c92
-104 212 -218 310 -295 l26 -20 7 407 c9 536 25 678 106 957 127 433 340 791
646 1085 353 338 736 545 1234 665 493 119 605 152 801 241 411 184 790 511
1009 869 89 145 227 446 214 467 -3 5 -24 8 -46 8 -52 0 -317 54 -391 79 l-56
20 -51 -94z"/>
<path d="M3980 7149 c-68 -13 -183 -74 -223 -118 -119 -132 -149 -314 -77
-466 40 -84 121 -167 197 -203 53 -24 69 -27 173 -27 109 0 119 2 182 32 164
77 266 263 239 433 -29 178 -170 321 -346 350 -68 11 -83 11 -145 -1z"/>
<path d="M7195 7095 c-2 -5 -6 -80 -9 -165 -8 -239 -53 -491 -130 -725 -228
-689 -716 -1206 -1391 -1473 -161 -63 -245 -88 -515 -152 -299 -70 -420 -106
-587 -171 -212 -83 -461 -231 -631 -374 -104 -87 -277 -263 -354 -360 -184
-233 -346 -580 -394 -845 -11 -64 -18 -169 -21 -320 l-4 -225 121 -79 c293
-190 718 -369 1058 -445 287 -65 464 -85 752 -85 387 0 667 47 1050 174 228
75 405 153 585 255 512 289 867 618 1188 1097 241 360 391 714 492 1163 144
642 96 1291 -142 1895 -84 213 -226 479 -317 595 l-31 39 -5 -514 c-4 -455 -3
-524 12 -595 43 -208 53 -331 53 -650 0 -305 -1 -313 -32 -490 -48 -271 -134
-548 -241 -780 -169 -365 -377 -652 -659 -910 -512 -469 -1179 -744 -1875
-771 -474 -19 -1096 135 -1505 373 l-41 24 24 91 c73 273 245 564 464 786 277
281 611 458 1056 557 499 111 779 213 1089 397 416 246 791 613 1015 991 261
444 400 966 400 1507 l0 195 -236 0 c-149 0 -238 -4 -239 -10z"/>
<path d="M6055 3807 c-121 -31 -222 -116 -278 -235 -30 -62 -32 -75 -32 -172
0 -95 3 -111 29 -168 39 -84 141 -181 223 -212 206 -78 445 15 537 210 29 60
31 73 31 170 -1 134 -23 195 -102 280 -78 85 -172 130 -279 136 -45 2 -100 -2
-129 -9z"/>
<path d="M4986 3350 c-63 -25 -132 -91 -162 -155 -37 -77 -34 -182 6 -263 33
-65 76 -109 143 -144 34 -19 58 -23 127 -23 73 0 92 4 136 27 73 38 106 69
139 130 27 48 30 62 30 143 0 74 -4 97 -23 133 -29 55 -90 115 -144 143 -62
32 -185 37 -252 9z"/>
</g>
</svg>
