<?xml version="1.0" standalone="no"?>
<!DOCTYPE svg PUBLIC "-//W3C//DTD SVG 20010904//EN"
 "http://www.w3.org/TR/2001/REC-SVG-20010904/DTD/svg10.dtd">
<svg version="1.0" xmlns="http://www.w3.org/2000/svg"
 width="1024.000000pt" height="1024.000000pt" viewBox="0 0 1024.000000 1024.000000"
 preserveAspectRatio="xMidYMid meet">

    <defs>
    <linearGradient id="customGradient" gradientUnits="userSpaceOnUse"
      x1="0" y1="0" x2="10240" y2="10240">
      <stop offset="0%" style="stop-color:#f2709c" /> 
      <stop offset="100%" style="stop-color:#fe9473" />
    </linearGradient>
  </defs>

<g transform="translate(0.000000,1024.000000) scale(0.100000,-0.100000)"
fill="url(#customGradient)" stroke="none" fill-opacity="0.8">
<path d="M4865 8319 c-278 -21 -669 -118 -960 -236 -370 -150 -693 -349 -960
-590 -485 -438 -818 -1005 -959 -1635 -97 -430 -98 -921 -5 -1348 95 -434 262
-815 512 -1164 388 -545 886 -924 1510 -1150 345 -125 826 -207 1122 -191 901
48 1631 373 2221 988 528 550 820 1215 875 1992 14 200 -3 515 -37 705 -97
537 -309 1003 -647 1426 -386 480 -901 831 -1525 1040 -420 140 -783 192
-1147 163z m395 -329 c36 -6 97 -18 135 -27 65 -15 75 -21 138 -84 104 -103
147 -216 147 -381 0 -196 -98 -376 -267 -492 -185 -126 -439 -141 -646 -39
-132 66 -251 208 -303 363 -23 69 -26 250 -5 325 22 78 75 176 125 232 51 57
83 70 232 97 93 17 351 20 444 6z m-1100 -176 c0 -3 -10 -42 -22 -87 -31 -115
-31 -335 1 -452 44 -165 163 -361 284 -471 108 -98 239 -168 392 -210 57 -15
103 -19 245 -19 189 0 250 11 393 71 264 111 476 381 539 684 25 117 20 295
-10 408 -16 59 -17 72 -6 72 26 0 197 -71 349 -145 796 -386 1366 -1130 1514
-1975 23 -131 41 -296 41 -379 0 -52 -2 -58 -29 -74 -60 -35 -199 -151 -295
-245 -173 -171 -290 -327 -471 -632 -186 -313 -319 -492 -520 -699 -198 -204
-456 -400 -685 -520 -110 -57 -325 -150 -393 -170 -18 -5 -86 -25 -152 -44
-66 -19 -176 -49 -245 -67 -325 -81 -559 -176 -774 -312 l-110 -69 -125 47
c-69 26 -172 70 -229 97 -118 57 -118 47 -5 139 191 156 451 283 721 354 52
13 194 42 316 64 522 96 817 206 1159 434 184 122 283 202 441 356 153 150
254 264 369 423 315 431 484 868 529 1363 34 382 -79 797 -313 1140 -180 264
-375 437 -476 421 -86 -14 -161 -108 -150 -188 7 -56 24 -77 132 -169 155
-133 256 -266 346 -454 189 -398 185 -851 -13 -1351 -231 -584 -738 -1136
-1304 -1419 -222 -110 -417 -170 -739 -226 -379 -66 -621 -138 -858 -256 -180
-89 -361 -213 -492 -336 -42 -39 -69 -57 -77 -52 -7 4 -53 42 -102 83 -48 42
-98 83 -109 92 -20 16 -19 18 57 117 218 285 566 509 886 571 30 5 81 15 114
20 78 14 120 42 147 97 40 84 8 177 -75 215 -54 25 -95 24 -240 -6 -281 -57
-538 -180 -776 -372 -87 -71 -244 -230 -314 -321 -27 -34 -54 -61 -60 -59 -5
2 -45 47 -89 100 l-80 97 58 88 c135 203 296 387 455 518 95 78 303 204 337
204 20 0 93 60 108 89 54 106 -28 241 -146 241 -126 0 -515 -257 -713 -471
-94 -102 -199 -230 -246 -302 -24 -36 -47 -64 -51 -61 -23 14 -155 294 -161
340 -2 16 17 36 77 82 109 81 301 266 394 377 226 271 333 500 422 898 33 148
90 325 139 433 72 159 237 354 385 455 119 81 150 151 105 239 -29 57 -73 84
-145 88 -55 4 -64 1 -114 -32 -201 -136 -399 -361 -509 -581 -74 -145 -107
-243 -168 -492 -59 -243 -98 -361 -151 -468 -89 -175 -194 -316 -344 -460 -88
-84 -196 -171 -204 -163 -8 8 -33 143 -46 247 l-13 105 25 15 c50 32 212 199
254 261 93 140 126 230 205 550 27 113 62 241 77 285 118 359 386 726 684 937
110 78 132 100 153 150 39 93 -36 205 -143 216 -66 6 -125 -26 -259 -140 -192
-164 -324 -309 -454 -498 -182 -266 -284 -506 -379 -889 -63 -254 -107 -369
-158 -415 -21 -19 -21 -19 -21 5 0 43 28 263 45 353 22 120 97 379 141 490
145 366 337 651 638 951 96 95 215 202 271 244 214 157 455 291 690 385 116
47 125 49 125 40z m3705 -3031 c-3 -16 -12 -71 -21 -123 -39 -243 -126 -505
-240 -732 -349 -688 -957 -1213 -1677 -1447 -250 -81 -538 -136 -782 -147
-128 -7 -426 10 -453 25 -30 17 192 106 399 162 469 126 615 175 846 284 123
58 288 152 344 197 20 15 40 28 43 28 4 0 59 39 124 87 137 102 377 333 502
483 141 170 343 461 446 645 47 84 174 265 252 357 69 83 198 208 214 208 4 0
5 -12 3 -27z"/>
<path d="M6235 6691 c-76 -34 -116 -107 -100 -181 4 -20 38 -66 91 -123 147
-160 200 -254 244 -432 26 -106 48 -146 96 -176 46 -28 126 -23 173 10 37 27
71 88 71 130 0 54 -60 263 -100 349 -109 232 -303 442 -410 442 -14 0 -43 -9
-65 -19z"/>
<path d="M4925 6166 c-221 -36 -402 -129 -542 -279 -145 -155 -218 -305 -249
-511 -34 -224 16 -439 148 -637 246 -369 719 -504 1155 -329 165 66 332 210
427 368 291 488 86 1106 -442 1331 -142 60 -340 83 -497 57z m320 -361 c159
-54 292 -175 352 -320 36 -88 46 -151 40 -254 -10 -158 -49 -251 -153 -360
-114 -121 -230 -178 -385 -188 -179 -12 -322 40 -443 160 -282 281 -217 727
134 920 132 72 315 89 455 42z"/>
</g>
</svg>
