<?xml version="1.0" standalone="no"?>
<!DOCTYPE svg PUBLIC "-//W3C//DTD SVG 20010904//EN"
 "http://www.w3.org/TR/2001/REC-SVG-20010904/DTD/svg10.dtd">
<svg version="1.0" xmlns="http://www.w3.org/2000/svg"
 width="1024.000000pt" height="1024.000000pt" viewBox="0 0 1024.000000 1024.000000"
 preserveAspectRatio="xMidYMid meet">

    <defs>
        <radialGradient id="customGradient" cx="32.7%" cy="82.7%" r="100%" fx="32.7%" fy="82.7%">
            <stop offset="8.3%" stop-color="rgba(130,205,221,1)" />
            <stop offset="79.4%" stop-color="rgba(255,247,153,1)" />
        </radialGradient>
    </defs>

<g transform="translate(0.000000,1024.000000) scale(0.100000,-0.100000)"
fill="url(#customGradient)" stroke="none" fill-opacity="0.8">
<path d="M4915 8803 c-105 -6 -336 -33 -451 -53 -642 -115 -1243 -394 -1744
-811 -126 -104 -348 -327 -464 -465 -792 -944 -1040 -2229 -656 -3394 181
-550 469 -1018 881 -1429 607 -607 1389 -975 2279 -1072 148 -17 582 -17 730
0 900 98 1686 471 2299 1091 1002 1014 1309 2501 789 3820 -193 488 -519 955
-943 1348 -151 140 -436 347 -659 477 -354 207 -800 369 -1211 439 -183 31
-545 63 -545 48 0 -10 144 -219 168 -244 10 -9 40 -20 67 -23 28 -3 75 -10
105 -15 30 -5 73 -12 95 -15 391 -57 880 -244 1255 -480 275 -174 437 -302
656 -520 452 -451 763 -1005 893 -1590 17 -77 33 -153 36 -170 2 -16 13 -95
25 -175 33 -224 32 -601 -1 -835 -6 -38 -15 -99 -20 -135 -32 -222 -115 -508
-214 -738 -281 -649 -802 -1222 -1451 -1595 -227 -130 -542 -264 -769 -328
-201 -56 -481 -111 -630 -124 -39 -3 -97 -10 -130 -14 -33 -5 -63 -7 -67 -5
-6 4 -32 -25 -101 -110 l-23 -29 -51 70 -50 69 -124 13 c-112 11 -231 25 -299
36 -14 3 -43 7 -65 11 -258 40 -644 168 -915 304 -617 309 -1035 677 -1416
1246 -278 417 -452 915 -503 1439 -13 132 -13 474 -1 595 72 712 324 1307 794
1870 281 336 633 618 1052 842 360 192 722 309 1139 369 86 13 157 28 167 36
18 16 178 238 178 247 0 3 -10 5 -22 4 -13 -1 -50 -3 -83 -5z"/>
<path d="M4853 8327 c-144 -216 -323 -482 -399 -592 -75 -110 -218 -321 -319
-470 -100 -148 -294 -436 -432 -640 -299 -443 -427 -630 -567 -830 -58 -82
-153 -217 -210 -299 l-105 -150 242 -124 c133 -68 348 -182 477 -252 449 -244
755 -406 1272 -674 103 -53 213 -112 245 -130 l58 -32 195 99 c107 55 285 148
395 207 110 59 367 196 570 305 204 108 422 225 485 259 63 35 235 125 382
202 147 76 268 142 268 146 0 4 -49 76 -110 160 -192 269 -528 758 -887 1292
-191 286 -415 617 -497 735 -82 119 -250 367 -374 551 -288 429 -413 613 -421
622 -4 4 -124 -169 -268 -385z m352 -187 c25 -36 170 -252 323 -481 302 -453
592 -884 706 -1049 76 -111 668 -970 748 -1087 26 -37 47 -73 47 -78 1 -16
-104 -77 -439 -258 -168 -90 -503 -271 -745 -402 -242 -131 -505 -273 -584
-316 l-144 -77 -106 56 c-58 30 -160 85 -226 122 -66 37 -172 96 -235 130 -63
35 -137 75 -165 90 -317 173 -840 457 -992 541 -106 57 -193 108 -193 113 0 5
29 47 64 95 89 121 308 439 623 906 148 220 366 542 483 715 118 173 328 486
468 695 139 209 259 386 265 394 13 15 25 1 102 -109z"/>
<path d="M5118 7301 l-3 -773 -75 -42 c-947 -531 -1662 -945 -1712 -995 -4 -3
99 -65 230 -136 130 -71 480 -261 777 -424 614 -335 773 -421 781 -421 4 0
130 68 283 151 477 262 584 320 1048 569 l453 243 -44 61 c-180 247 -659 944
-1051 1526 -120 179 -302 449 -404 600 -102 151 -203 302 -224 335 -22 33 -44
64 -48 69 -5 6 -10 -333 -11 -763z m-68 -1220 l0 -79 45 -4 45 -3 0 82 0 83
75 0 75 0 0 -84 0 -83 49 -7 c120 -16 221 -138 221 -269 0 -77 -20 -127 -72
-181 -26 -27 -47 -50 -45 -51 32 -15 91 -62 110 -87 49 -64 59 -177 23 -262
-37 -88 -138 -156 -233 -156 l-53 0 0 -70 0 -70 -75 0 -75 0 0 70 0 70 -47 0
-48 0 0 -67 0 -68 -72 -3 -73 -3 0 70 0 70 -117 3 -118 3 -3 68 -3 67 116 0
115 0 0 365 0 365 -84 0 c-46 0 -98 3 -115 6 l-32 7 3 66 3 66 113 3 112 3 0
79 0 80 80 0 80 0 0 -79z"/>
<path d="M5041 5706 l1 -144 114 -7 c130 -8 151 -5 194 31 83 71 82 193 -3
244 -28 17 -51 20 -170 20 l-138 0 2 -144z"/>
<path d="M5041 5265 l-2 -145 148 0 c135 0 153 2 193 23 85 43 101 134 36 204
-45 49 -91 61 -242 62 l-131 2 -2 -146z"/>
<path d="M4530 8208 c-356 -74 -712 -213 -1011 -394 -78 -47 -200 -129 -238
-160 -9 -7 -52 -39 -96 -72 -142 -104 -387 -340 -718 -691 l-107 -114 0 -93 0
-94 -71 -158 c-129 -284 -192 -478 -245 -752 -33 -175 -43 -322 -39 -570 6
-403 56 -669 185 -992 34 -84 86 -200 116 -257 l54 -104 0 -109 0 -109 73 -77
c39 -42 112 -122 162 -177 110 -122 265 -285 363 -378 181 -175 465 -372 722
-501 304 -154 530 -230 875 -296 116 -22 218 -42 228 -44 9 -2 17 -2 17 2 0 3
-39 57 -87 121 -48 64 -143 192 -211 285 l-123 169 -192 77 c-335 135 -511
237 -781 455 l-106 85 -243 0 -242 -1 -167 173 -167 173 -1 122 c0 102 3 129
21 170 12 26 43 108 69 182 l48 133 -24 64 c-53 142 -107 353 -128 504 -21
150 -28 505 -13 650 16 157 20 180 31 180 6 0 65 -31 131 -69 66 -37 123 -67
127 -65 10 6 161 215 157 218 -2 1 -83 44 -179 96 -96 51 -179 96 -184 100 -5
5 10 54 34 112 23 57 42 112 42 123 0 20 -100 294 -122 334 -6 12 -12 73 -14
137 l-4 116 117 122 c64 67 143 152 177 189 l60 67 205 0 204 0 85 71 c316
265 541 402 849 518 l104 39 54 73 c51 69 239 341 278 402 17 27 17 27 -6 26
-13 -1 -44 -5 -69 -11z m-204 -113 c16 -10 20 -22 16 -40 -6 -33 -30 -49 -113
-76 -258 -84 -501 -204 -750 -370 -129 -86 -201 -144 -325 -260 -83 -79 -115
-94 -142 -67 -43 43 13 116 208 273 280 225 564 378 955 516 126 44 124 44
151 24z m-2025 -2108 c8 -19 5 -42 -15 -108 -33 -110 -71 -282 -87 -394 -20
-139 -18 -523 4 -675 19 -132 67 -354 95 -432 13 -38 14 -51 4 -73 -17 -37
-71 -33 -90 8 -20 41 -70 250 -99 417 -24 134 -26 168 -27 445 -1 249 2 317
17 397 26 138 92 384 111 413 22 34 72 35 87 2z m903 -2982 c165 -139 442
-315 651 -414 122 -58 363 -154 455 -181 41 -13 82 -29 92 -37 25 -22 29 -52
8 -73 -22 -22 -34 -20 -240 52 -377 132 -712 319 -1030 575 -88 71 -107 105
-79 139 23 27 55 14 143 -61z"/>
<path d="M5617 8208 c32 -52 191 -283 259 -378 l82 -115 99 -35 c135 -48 385
-174 518 -261 120 -78 240 -169 351 -266 l71 -61 202 -4 202 -3 62 -65 c34
-36 112 -118 174 -183 l113 -117 0 -116 c0 -83 -4 -123 -15 -144 -8 -16 -39
-100 -69 -187 l-53 -158 38 -100 c21 -55 38 -107 38 -115 1 -9 -40 -36 -102
-68 -56 -29 -137 -72 -180 -95 l-77 -43 71 -99 c39 -55 76 -105 82 -111 9 -9
43 6 137 57 145 80 132 86 151 -72 16 -138 6 -568 -16 -709 -21 -136 -56 -280
-105 -431 l-39 -121 59 -166 c33 -92 65 -171 70 -176 6 -6 10 -66 10 -133 l0
-124 -172 -174 -171 -175 -233 0 -233 0 -68 -52 c-219 -168 -279 -210 -368
-263 -176 -104 -493 -248 -593 -270 -36 -7 -51 -25 -187 -209 -44 -60 -128
-173 -188 -252 -59 -79 -102 -144 -95 -144 13 0 113 16 158 25 14 3 45 8 70
11 89 12 387 92 515 139 327 119 572 255 879 488 123 93 387 349 581 562 55
61 128 139 162 175 l63 65 0 104 0 104 50 97 c122 240 204 469 249 699 52 262
56 305 56 641 l-1 315 -37 178 c-20 98 -53 233 -72 300 -40 133 -144 404 -206
533 -37 77 -39 86 -39 177 l0 96 -169 178 c-161 170 -431 438 -516 514 -363
320 -797 555 -1265 684 -69 19 -156 39 -195 45 -38 6 -80 13 -93 16 -18 4 -21
1 -15 -8z m493 -154 c323 -116 658 -300 885 -485 92 -75 225 -212 225 -233 0
-18 -34 -56 -50 -56 -6 0 -43 30 -83 68 -313 290 -680 501 -1123 646 -63 21
-89 46 -80 80 3 13 14 26 24 28 24 6 113 -15 202 -48z m1892 -2061 c46 -54
117 -360 139 -593 20 -220 -2 -591 -45 -785 -40 -174 -71 -281 -92 -312 -22
-34 -71 -32 -85 4 -6 18 -7 35 0 52 13 34 44 156 65 251 55 258 78 560 57 765
-16 148 -63 388 -96 486 -24 71 -32 129 -18 142 13 13 60 7 75 -10z m-837
-2929 c35 -36 16 -63 -115 -167 -305 -240 -635 -422 -995 -547 -174 -61 -224
-70 -245 -45 -20 24 5 66 50 82 382 137 599 236 819 373 144 89 298 201 377
274 52 48 82 56 109 30z"/>
<path d="M2793 6754 c-54 -64 -103 -124 -110 -133 -9 -13 -3 -35 31 -111 l42
-95 130 -3 129 -2 46 72 c25 40 64 103 87 139 23 36 42 72 42 80 0 8 -12 49
-26 91 l-26 78 -123 0 -124 0 -98 -116z"/>
<path d="M7057 6783 l-26 -88 92 -142 92 -142 130 -1 130 0 43 101 c49 117 60
86 -87 253 l-93 106 -127 0 -127 0 -27 -87z"/>
<path d="M3329 6643 c-13 -21 -108 -166 -212 -322 -104 -157 -191 -290 -193
-296 -6 -14 145 -101 155 -89 4 5 39 54 77 109 37 55 126 183 198 285 71 102
137 197 147 211 l19 27 -65 42 c-35 23 -69 48 -76 56 -17 21 -25 18 -50 -23z"/>
<path d="M6800 6620 c-41 -28 -74 -55 -72 -61 6 -23 426 -629 436 -629 23 0
141 77 140 91 -1 8 -75 127 -166 264 -90 138 -184 280 -208 318 -23 37 -46 67
-49 67 -3 0 -40 -23 -81 -50z"/>
<path d="M2923 5123 c-26 -9 -13 -41 25 -58 20 -10 89 -46 152 -80 259 -140
342 -179 351 -164 14 22 11 27 -28 52 -82 51 -489 254 -500 250z"/>
<path d="M7225 5094 c-22 -14 -132 -73 -245 -132 -196 -103 -236 -133 -198
-147 15 -6 500 243 526 269 8 8 11 19 8 25 -11 18 -48 11 -91 -15z"/>
<path d="M2886 4918 c5 -7 71 -98 148 -203 77 -104 242 -332 366 -505 345
-480 556 -771 749 -1030 63 -85 188 -257 277 -381 202 -283 301 -419 424 -584
53 -71 134 -185 180 -253 l84 -123 18 23 c10 13 43 59 75 103 96 135 233 325
303 420 37 50 109 149 160 220 52 72 124 171 160 220 37 50 149 204 251 343
101 139 219 301 262 360 43 59 130 180 193 270 64 89 121 168 128 175 6 6 74
100 150 207 77 107 197 274 268 370 205 280 269 375 258 378 -5 2 -38 -12 -73
-31 -231 -129 -2116 -1077 -2141 -1077 -17 0 -1051 512 -1754 870 -261 132
-478 240 -484 240 -5 0 -6 -6 -2 -12z m3777 -521 c-39 -64 -146 -217 -152
-217 -4 0 -50 -25 -102 -56 -153 -91 -807 -442 -1152 -619 l-137 -70 0 -563
c0 -347 -4 -562 -9 -560 -10 3 -39 42 -301 403 -572 788 -1090 1491 -1194
1619 -26 32 -45 60 -42 63 3 3 54 -21 113 -54 59 -33 227 -125 373 -205 146
-79 409 -223 585 -318 176 -95 352 -190 391 -211 39 -22 77 -39 84 -39 17 0
718 375 877 468 76 45 131 76 378 210 127 69 241 133 255 143 30 22 44 24 33
6z"/>
<path d="M3009 4367 c-42 -29 -77 -56 -78 -60 -3 -7 246 -376 407 -605 44 -63
45 -63 66 -44 11 10 49 36 84 57 35 21 65 42 68 47 3 4 -18 39 -46 76 -28 38
-130 183 -228 322 -97 139 -181 255 -187 256 -5 1 -44 -21 -86 -49z"/>
<path d="M6954 4168 c-98 -139 -202 -288 -231 -330 l-54 -77 68 -44 c92 -59
114 -70 123 -60 4 4 76 109 160 233 85 124 182 264 217 312 35 48 63 92 63 98
0 7 -101 80 -157 113 -7 5 -76 -85 -189 -245z"/>
<path d="M2717 3830 l-38 -100 116 -135 116 -135 112 0 112 0 26 97 27 96 -60
91 c-33 50 -71 112 -84 139 l-24 47 -133 0 -132 0 -38 -100z"/>
<path d="M7196 3898 c-10 -18 -50 -83 -87 -144 l-69 -111 19 -59 c10 -32 22
-74 26 -91 l7 -33 118 0 119 0 114 133 115 132 -25 65 c-14 36 -30 82 -35 103
l-10 37 -137 0 -137 0 -18 -32z"/>
</g>
</svg>
